<svg height="500pt" preserveAspectRatio="xMidYMid meet" viewBox="0 0 500 500" width="500pt" xmlns="http://www.w3.org/2000/svg"><g transform="matrix(.1 0 0 -.1 0 500)"><path d="m1280 3060v-240h1075 1075v240 240h-1075-1075zm580 20v-150h70c68 0 70-1 70-25v-25h-100-100v175 175h30 30zm260-25v-175h-30-30v175 175h30 30zm251 165c74-21 97-92 45-137-16-13-27-25-25-26s13-7 24-13 26-23 33-38c12-23 11-32-5-64-23-47-61-61-165-61l-78-1v175 175h68c37 0 83-5 103-10zm304 0c51-12 75-41 75-93 0-32-6-46-33-71l-33-31 48-67c26-38 48-71 48-74s-14-4-32-2c-26 2-40 14-78 68-29 40-55 66-68 68-21 3-22 0-22-67v-71h-30-30v175 175h58c31 0 75-5 97-10zm225-165v-175h-30-30v175 175h30 30z"/><path d="m2260 3130v-50h50c42 0 52 4 66 25 15 23 15 27 0 50-14 21-24 25-66 25h-50z"/><path d="m2267 3033c-4-3-7-28-7-55v-48h55c47 0 57 3 71 25 21 32 10 61-28 74-35 12-81 14-91 4z"/><path d="m2580 3120v-60h34c44 0 79 28 79 65 0 36-26 55-75 55h-38z"/><path d="m1610 2540v-240h1075 1075v240 240h-1075-1075zm853 169c122-33 166-185 81-279-40-45-90-60-193-60h-71v175 175h73c39 0 89-5 110-11zm247-164v-175h-30-30v175 175h30 30z"/><path d="m2340 2545v-125h50c90 0 135 42 135 125s-45 125-135 125h-50z"/><path d="m1420 2030v-240h1075 1075v240 240h-1075-1075zm511 175c25-14 28-18 18-36-7-14-16-18-27-13-36 16-88 16-101 0-27-32-9-58 59-85 79-32 99-62 81-121-6-20-20-45-31-55-29-26-103-31-150-10-42 19-49 35-25 55 11 9 19 8 37-4 26-19 89-21 106-4 19 19 14 56-10 72-13 7-40 19-60 26-121 38-93 188 35 190 21 0 51-7 68-15zm253 5c59-13 81-41 81-100 0-41-5-54-28-77-22-23-39-29-90-33l-62-5-3-63c-3-61-4-63-28-60l-25 3v168c0 92 1 169 1 172 0 8 113 5 154-5zm393-16c55-41 68-70 68-149s-13-108-66-148c-53-39-157-34-209 10-43 36-61 77-61 138 0 77 37 137 101 164 39 17 136 8 167-15zm331-1c33-24 47-61 38-97-7-28-34-60-56-68-9-3 4-29 39-81l52-77h-35c-32 0-39 5-80 70-37 56-51 70-71 70-24 0-25-2-25-70v-70h-30-30v176 177l85-5c65-3 92-9 113-25zm362 2c0-24-3-25-55-25h-55v-150-150h-30-30v150 150h-50c-47 0-50 2-50 25v25h135 135z"/><path d="m2084 2156c-3-7-4-35-2-62 3-43 6-49 27-52 80-12 132 57 81 108-24 24-98 28-106 6z"/><path d="m2404 2136c-31-31-34-40-34-91s3-60 34-91c46-46 101-48 148-5 31 28 33 33 33 96s-2 68-33 96c-47 43-102 41-148-5z"/><path d="m2770 2110v-60h40c46 0 80 27 80 63 0 35-30 57-78 57h-42z"/></g></svg>