<svg height="1024pt" preserveAspectRatio="xMidYMid meet" viewBox="0 0 1024 1024" width="1024pt" xmlns="http://www.w3.org/2000/svg"><g transform="matrix(.1 0 0 -.1 0 1024)"><path d="m2622 6268 3-493h2200 2200v490 490l-2203 3-2202 2zm1190 40 3-303 140-5 140-5v-45-45h-202c-112 0-203 3-203 8v352 345h60 60zm528-53v-356l-62 3c-35 2-62 6-60 11 1 4 2 162 2 352v345h60 60zm565 328c22-12 53-35 70-52 26-29 29-38 29-101s-3-72-29-101c-17-17-40-35-53-40-28-11-24-33 5-37 34-5 90-66 97-106 14-76-14-153-72-191-66-44-124-55-289-55h-153v356 356l178-4c155-4 182-7 217-25zm627-5c66-31 93-67 103-138 12-90-37-185-112-217-39-16-40-23-12-49 26-23 179-249 179-264 0-6-25-10-58-10-70 0-69 0-169 150-39 58-77 111-86 118-9 8-33 12-54 10l-38-3-3-137-3-138h-59-60v356 356l158-4c144-4 162-6 214-30zm408-323v-355h-60-60v355 355h60 60z"/><path d="m4632 6408 3-103h86c98 0 132 13 156 58 19 38 10 87-24 121-24 25-31 26-125 26h-99z"/><path d="m4643 6214c-9-4-13-36-13-110v-104h101c119 0 151 15 170 80 26 87-28 133-161 137-47 1-91 0-97-3z"/><path d="m5282 6393 3-118 64-3c114-5 165 34 165 125 0 51-2 58-34 84-32 27-41 29-117 29h-84z"/><path d="m3304 5691c-2-2-4-224-4-493v-488h2200 2200l-2 490-3 490-2193 3c-1207 1-2196 0-2198-2zm1702-132c141-26 234-104 274-229 55-170-11-350-157-427-32-17-80-34-108-37-42-5-293-11-332-7-10 1-13 78-13 349 0 192 3 352 7 355 11 11 265 8 329-4zm542-346-3-357-47 1c-27 0-52 1-58 2-11 1-15 693-3 704 3 4 30 7 60 7h53z"/><path d="m4807 5463c-4-3-7-118-7-255v-248h105c114 0 159 14 201 62 57 65 82 159 64 241-24 104-51 143-127 182-43 21-64 25-140 25-49 0-93-3-96-7z"/><path d="m2912 4158 3-493h2195 2195l3 493 2 492h-2200-2200zm998 376c56-19 100-45 100-59 0-16-39-75-50-75-5 0-26 10-47 21-50 28-137 31-175 5-35-23-47-76-24-111 18-27 49-43 149-76 123-42 177-113 163-216-11-81-80-173-129-173-9 0-19-4-22-10-3-5-42-10-87-10-68 0-89 4-143 30-82 39-91 50-70 90 19 38 41 47 68 31 69-44 90-51 148-51 54 0 64 3 90 29 22 23 29 39 29 68 0 52-34 84-120 113-140 47-176 75-201 158-36 123 76 251 221 251 30 1 75-6 100-15zm1274 1c54-16 130-62 164-98 11-12 35-53 52-89 27-60 30-78 30-162 0-78-4-105-24-149-61-139-172-207-338-207-48 0-90 5-93 10-3 6-14 10-24 10-56 0-160 95-199 180-22 47-25 69-25 160 0 92 3 112 26 160 72 154 263 236 431 185zm1511-45v-45l-105-3c-68-2-107-7-112-15-5-7-8-142-7-302l1-290h-59-58l-3 302-2 302-103 3-102 3-3 39c-2 21-1 43 1 50 3 8 78 10 278 6l274-5zm-2155 15c46-25 60-39 82-85 46-93 33-186-35-258-48-51-89-65-207-71l-105-6-5-125-5-125-57-3-58-3v357 356l168-4c163-4 168-4 222-33zm1380 12c146-64 161-256 28-342-26-16-47-34-47-38-1-9 159-247 185-278 20-23 8-29-55-29-63 1-75 8-112 65-14 22-50 77-79 122-56 86-89 110-135 99-24-6-24-7-27-144l-3-137h-60-60l-3 340c-1 187 0 346 3 354 8 20 316 10 365-12z"/><path d="m4958 4411c-80-51-108-111-108-230 0-52 6-89 19-116 81-177 329-181 411-8 18 38 23 66 23 133 0 94-13 131-67 188-42 46-86 62-165 62-57 0-74-4-113-29z"/><path d="m4272 4313 3-128 69-3c119-5 176 39 176 135 0 49-4 59-34 89-34 34-35 34-125 34h-92z"/><path d="m5680 4320v-120h64c112 0 176 48 176 132 0 29-8 45-35 73-35 35-37 35-120 35h-85z"/></g></svg>